# xmcd CD database file
#
# Track frame offsets:
#	182
#	21870
#	45170
#	64845
#	105520
#	126057
#	153082
#	169157
#	189420
#	222907
#	255782
#
# Disc length: 3938 seconds
#
# Revision: 0
# Processed by: cddbd v1.5.1PL0 Copyright (c) Steve Scherf et al.
# Submitted via: CDex 1.51
#
DISCID=810f600b
DTITLE=Vertigo - Vertigo
DYEAR=1996
DGENRE=Jazz
TTITLE0=Pharoah Sanders/Our Roots
TTITLE1=Wolfgang Puschnig/Microphone Veteran
TTITLE2=Courtney Pine/The 37th Chamber
TTITLE3=Steve Turre/African Shuffle
TTITLE4=Rodney Kendrick/Last Chance for Common Sense
TTITLE5=D.I.G/History?
TTITLE6=Mino Cinelu and Kenny Barron/Louisiana Memories
TTITLE7=Lucky Peterson and Bootsy Collins/Lifetime
TTITLE8=Hank Jones and Cheik-Tidiane Seck/Maningafoly
TTITLE9=Randy Weston/Loose Wig
TTITLE10=Graham Haynes/Global Transition
EXTD=YEAR: 1996
EXTT0=
EXTT1=
EXTT2=
EXTT3=
EXTT4=
EXTT5=
EXTT6=
EXTT7=
EXTT8=
EXTT9=
EXTT10=
PLAYORDER=
